# xmcd CD database file generated by OrangeCD 4.3
#
# Track frame offsets:
#	150
#	17502
#	37125
#	55289
#	69470
#	85162
#	101183
#	119583
#	138298
#	152449
#	169284
#	184258
#
# Disc length: 2698 seconds
#
# Revision: 1
# Processed by: cddbd v1.4PL0 Copyright (c) Steve Scherf et al.
# Submitted via: OrangeCD 4.3
#
DISCID=a40a880c
DTITLE=Mr. Shadow - The Mahem Clique
DYEAR=2001
DGENRE=chicano rap
TTITLE0=Gangsta Stepp'n
TTITLE1=Califon-i-a
TTITLE2=When We Ride
TTITLE3=Make It Trew
TTITLE4=Bow Down
TTITLE5=Aqui Estamos
TTITLE6=Double "S"
TTITLE7=Hard 2 Kill
TTITLE8=Come and Fuck W/Us
TTITLE9=We The Shit
TTITLE10=Keep'n
TTITLE11=WWW. Lowprofilerecords.Com Mix
EXTD=sureno
EXTT0=
EXTT1=
EXTT2=
EXTT3=
EXTT4=
EXTT5=
EXTT6=
EXTT7=
EXTT8=
EXTT9=
EXTT10=
EXTT11=
PLAYORDER=
